<?xml version="1.0" encoding="UTF-8"?>
<svg version="1.1" xmlns="http://www.w3.org/2000/svg" width="48" height="48">
<path d="M0 0 C1.23556641 0.01740234 1.23556641 0.01740234 2.49609375 0.03515625 C3.32238281 0.04417969 4.14867188 0.05320313 5 0.0625 C5.63808594 0.07410156 6.27617188 0.08570313 6.93359375 0.09765625 C6.60359375 1.41765625 6.27359375 2.73765625 5.93359375 4.09765625 C3.62359375 3.76765625 1.31359375 3.43765625 -1.06640625 3.09765625 C-1.06640625 5.07765625 -1.06640625 7.05765625 -1.06640625 9.09765625 C-0.01453125 9.46890625 -0.01453125 9.46890625 1.05859375 9.84765625 C8.89405042 13.25437654 8.89405042 13.25437654 11.15625 17.265625 C12.61117442 21.06492157 13.35699766 23.76582235 12.1015625 27.71484375 C8.89630383 33.77675289 8.89630383 33.77675289 4.93359375 35.09765625 C4.93359375 35.75765625 4.93359375 36.41765625 4.93359375 37.09765625 C-1.81640625 38.22265625 -1.81640625 38.22265625 -4.06640625 37.09765625 C-4.05480469 37.80792969 -4.04320312 38.51820312 -4.03125 39.25 C-4.01771484 40.62865234 -4.01771484 40.62865234 -4.00390625 42.03515625 C-3.99230469 42.95167969 -3.98070312 43.86820313 -3.96875 44.8125 C-4.06640625 47.09765625 -4.06640625 47.09765625 -5.06640625 48.09765625 C-6.58568663 48.16945589 -8.10808107 48.18157632 -9.62890625 48.16015625 C-10.45519531 48.15113281 -11.28148437 48.14210937 -12.1328125 48.1328125 C-12.77089844 48.12121094 -13.40898437 48.10960937 -14.06640625 48.09765625 C-14.06640625 47.10765625 -14.06640625 46.11765625 -14.06640625 45.09765625 C-10.77663817 44.00106689 -9.35336858 44.29812487 -6.06640625 45.09765625 C-6.06640625 43.11765625 -6.06640625 41.13765625 -6.06640625 39.09765625 C-6.76765625 38.87078125 -7.46890625 38.64390625 -8.19140625 38.41015625 C-12.86940002 36.2745504 -16.27017035 33.83489821 -18.44140625 29.09765625 C-19.29635699 24.99389269 -19.70879627 22.45005629 -17.87890625 18.59765625 C-15.84552473 15.79299209 -13.57845855 13.47749527 -11.06640625 11.09765625 C-10.73640625 10.76765625 -10.40640625 10.43765625 -10.06640625 10.09765625 C-8.06682261 10.05684842 -6.06595371 10.05511269 -4.06640625 10.09765625 C-4.00582031 9.45957031 -3.94523437 8.82148438 -3.8828125 8.1640625 C-3.79902344 7.33777344 -3.71523438 6.51148438 -3.62890625 5.66015625 C-3.54769531 4.83644531 -3.46648438 4.01273437 -3.3828125 3.1640625 C-2.95988024 0.40194935 -2.8076368 0.13268605 0 0 Z M-9.06640625 12.09765625 C-9.06640625 13.74765625 -9.06640625 15.39765625 -9.06640625 17.09765625 C-10.38640625 16.76765625 -11.70640625 16.43765625 -13.06640625 16.09765625 C-13.54078125 17.04640625 -14.01515625 17.99515625 -14.50390625 18.97265625 C-15.35807292 20.68098958 -16.21223958 22.38932292 -17.06640625 24.09765625 C-16.43600582 25.44851432 -15.76389208 26.78018301 -15.06640625 28.09765625 C-14.69856494 29.42188495 -14.35437644 30.75379537 -14.06640625 32.09765625 C-11.68076548 31.52181193 -9.39957841 30.8753803 -7.06640625 30.09765625 C-7.06640625 30.75765625 -7.06640625 31.41765625 -7.06640625 32.09765625 C-7.72640625 32.09765625 -8.38640625 32.09765625 -9.06640625 32.09765625 C-9.06640625 33.41765625 -9.06640625 34.73765625 -9.06640625 36.09765625 C-6.19915939 35.52420688 -5.20495475 35.23620475 -3.06640625 33.09765625 C-2.40640625 34.08765625 -1.74640625 35.07765625 -1.06640625 36.09765625 C0.25359375 35.76765625 1.57359375 35.43765625 2.93359375 35.09765625 C2.93359375 34.10765625 2.93359375 33.11765625 2.93359375 32.09765625 C2.27359375 32.09765625 1.61359375 32.09765625 0.93359375 32.09765625 C0.93359375 31.43765625 0.93359375 30.77765625 0.93359375 30.09765625 C2.58359375 30.75765625 4.23359375 31.41765625 5.93359375 32.09765625 C6.26359375 30.44765625 6.59359375 28.79765625 6.93359375 27.09765625 C7.92359375 26.76765625 8.91359375 26.43765625 9.93359375 26.09765625 C9.32368484 22.53985429 8.35522565 19.41479735 6.93359375 16.09765625 C4.00812935 15.87404945 4.00812935 15.87404945 1.93359375 17.09765625 C2.26359375 15.77765625 2.59359375 14.45765625 2.93359375 13.09765625 C1.61359375 12.76765625 0.29359375 12.43765625 -1.06640625 12.09765625 C-1.39640625 13.08765625 -1.72640625 14.07765625 -2.06640625 15.09765625 C-2.96359375 14.35515625 -2.96359375 14.35515625 -3.87890625 13.59765625 C-6.03670619 11.81489207 -6.03670619 11.81489207 -9.06640625 12.09765625 Z " fill="#000000" transform="translate(27.06640625,-0.09765625)"/>
<path d="M0 0 C1.32 0 2.64 0 4 0 C4.66 1.65 5.32 3.3 6 5 C6.33 3.35 6.66 1.7 7 0 C7.99 0 8.98 0 10 0 C10 2.97 10 5.94 10 9 C7.69 9 5.38 9 3 9 C3 8.34 3 7.68 3 7 C2.01 7 1.02 7 0 7 C0 7.66 0 8.32 0 9 C-0.99 9 -1.98 9 -3 9 C-2.5020163 5.26512223 -2.12508244 3.18762365 0 0 Z " fill="#000000" transform="translate(20,19)"/>
<path d="M0 0 C0.99 0.33 1.98 0.66 3 1 C2.67 3.97 2.34 6.94 2 10 C-0.31 10 -2.62 10 -5 10 C-5 9.34 -5 8.68 -5 8 C-3.35 8 -1.7 8 0 8 C-0.2784375 6.2984375 -0.2784375 6.2984375 -0.5625 4.5625 C-0.706875 3.386875 -0.85125 2.21125 -1 1 C-0.67 0.67 -0.34 0.34 0 0 Z " fill="#000000" transform="translate(45,13)"/>
<path d="M0 0 C1.98 0 3.96 0 6 0 C6.33 0.66 6.66 1.32 7 2 C5.35 2 3.7 2 2 2 C2.185625 2.94875 2.37125 3.8975 2.5625 4.875 C3 8 3 8 2 10 C1.01 9.67 0.02 9.34 -1 9 C-0.67 6.03 -0.34 3.06 0 0 Z " fill="#000000" transform="translate(1,25)"/>
<path d="M0 0 C0.99 0 1.98 0 3 0 C3 2.97 3 5.94 3 9 C2.01 9 1.02 9 0 9 C-0.87890625 2.84765625 -0.87890625 2.84765625 -1 1 C-0.67 0.67 -0.34 0.34 0 0 Z " fill="#000000" transform="translate(20,0)"/>
<path d="M0 0 C1.65 0 3.3 0 5 0 C5.33 2.31 5.66 4.62 6 7 C4.68 7 3.36 7 2 7 C2.33 5.35 2.66 3.7 3 2 C2.01 2 1.02 2 0 2 C0 1.34 0 0.68 0 0 Z " fill="#000000" transform="translate(38,28)"/>
<path d="M0 0 C0.99 0 1.98 0 3 0 C3 0.66 3 1.32 3 2 C4.32 1.67 5.64 1.34 7 1 C7.33 2.32 7.66 3.64 8 5 C5.36 4.67 2.72 4.34 0 4 C0 2.68 0 1.36 0 0 Z " fill="#000000" transform="translate(28,39)"/>
<path d="M0 0 C0.99 0.33 1.98 0.66 3 1 C2.67 2.65 2.34 4.3 2 6 C2.99 6.33 3.98 6.66 5 7 C3.35 7.33 1.7 7.66 0 8 C-0.38063221 5.6739143 -0.71269945 3.33944736 -1 1 C-0.67 0.67 -0.34 0.34 0 0 Z " fill="#000000" transform="translate(5,12)"/>
<path d="M0 0 C2.31 0.33 4.62 0.66 7 1 C7 2.32 7 3.64 7 5 C6.34 5 5.68 5 5 5 C5 4.34 5 3.68 5 3 C3.35 3.33 1.7 3.66 0 4 C0 2.68 0 1.36 0 0 Z " fill="#000000" transform="translate(12,4)"/>
<path d="M0 0 C2.31 0 4.62 0 7 0 C7 0.99 7 1.98 7 3 C4.69 3.33 2.38 3.66 0 4 C0 2.68 0 1.36 0 0 Z " fill="#000000" transform="translate(13,39)"/>
<path d="M0 0 C0.66 0 1.32 0 2 0 C2.33 2.97 2.66 5.94 3 9 C1.68 9 0.36 9 -1 9 C-0.67 6.03 -0.34 3.06 0 0 Z " fill="#000000" transform="translate(25,39)"/>
<path d="M0 0 C0.99 0 1.98 0 3 0 C3 2.31 3 4.62 3 7 C2.01 7.495 2.01 7.495 1 8 C0.34 7.67 -0.32 7.34 -1 7 C-0.67 4.69 -0.34 2.38 0 0 Z " fill="#000000" transform="translate(6,28)"/>
<path d="M0 0 C2.31 0 4.62 0 7 0 C6.67 1.32 6.34 2.64 6 4 C3.69 3.67 1.38 3.34 -1 3 C-0.67 2.01 -0.34 1.02 0 0 Z " fill="#000000" transform="translate(41,24)"/>
<path d="M0 0 C0.99 0.33 1.98 0.66 3 1 C2.34 3.31 1.68 5.62 1 8 C0.34 8 -0.32 8 -1 8 C-1.04241723 5.66705225 -1.04092937 3.33297433 -1 1 C-0.67 0.67 -0.34 0.34 0 0 Z " fill="#000000" transform="translate(40,12)"/>
<path d="M0 0 C0 0.99 0 1.98 0 3 C-2.31 3 -4.62 3 -7 3 C-7 2.01 -7 1.02 -7 0 C-3.98968256 -0.93423645 -3.13349732 -1.04449911 0 0 Z " fill="#000000" transform="translate(35,6)"/>
<path d="M0 0 C2.97 0.495 2.97 0.495 6 1 C6 1.66 6 2.32 6 3 C3.69 3.33 1.38 3.66 -1 4 C-0.67 2.68 -0.34 1.36 0 0 Z " fill="#000000" transform="translate(1,20)"/>
</svg>
