<?xml version="1.0" encoding="UTF-8"?>
<svg version="1.1" xmlns="http://www.w3.org/2000/svg" width="80" height="81">
<path d="M0 0 C2.64453125 0.3125 2.64453125 0.3125 4.4453125 2.0625 C4.94417969 2.805 5.44304688 3.5475 5.95703125 4.3125 C6.46878906 5.055 6.98054688 5.7975 7.5078125 6.5625 C7.88292969 7.14 8.25804688 7.7175 8.64453125 8.3125 C9.69640625 7.9103125 9.69640625 7.9103125 10.76953125 7.5 C14.104644 7.28249265 14.51003512 7.68080612 16.95703125 9.75 C17.84390625 10.595625 18.73078125 11.44125 19.64453125 12.3125 C22.11475611 11.21462228 23.85650102 10.12408243 25.89453125 8.3125 C31.40051539 4.3081479 36.99632988 3.88112256 43.53515625 4.828125 C47.77342265 5.80135654 51.06992033 7.92942605 54.64453125 10.3125 C54.64453125 11.3025 54.64453125 12.2925 54.64453125 13.3125 C51.74152897 12.89778539 49.90853063 12.50661719 47.51953125 10.75 C43.00679337 8.49363106 38.59347314 8.78772266 33.64453125 9.3125 C28.43892689 11.04770145 25.8240755 13.89646632 22.64453125 18.3125 C21.042121 21.78823158 20.29483147 24.97105455 19.76953125 28.75 C18.80455707 34.18894537 17.59756183 38.21912943 12.88671875 41.55859375 C8.25657663 44.18234095 3.9211809 45.36782993 -1.35546875 44.3125 C-4.16371016 43.19689725 -6.76130436 41.85795963 -9.35546875 40.3125 C-9.35546875 39.3225 -9.35546875 38.3325 -9.35546875 37.3125 C-7.07990368 37.81818113 -5.20164596 38.3894114 -3.10546875 39.4375 C1.669205 40.95671437 5.87660741 40.01966954 10.45703125 38.1875 C13.56026855 35.52758231 14.49126839 33.22077968 15.64453125 29.3125 C15.62928654 25.22691797 14.78665336 21.22834723 13.64453125 17.3125 C14.96453125 16.9825 16.28453125 16.6525 17.64453125 16.3125 C15.16953125 14.3325 15.16953125 14.3325 12.64453125 12.3125 C12.64453125 13.6325 12.64453125 14.9525 12.64453125 16.3125 C10.64453125 15.3125 8.64453125 14.3125 6.64453125 13.3125 C6.30421875 14.2715625 6.30421875 14.2715625 5.95703125 15.25 C4.64453125 17.3125 4.64453125 17.3125 2.26953125 18.25 C-0.99928582 18.32782898 -1.86953407 17.30124775 -4.35546875 15.3125 C-7.43003859 15.97580585 -7.43003859 15.97580585 -8.48046875 18.1875 C-10.75986361 23.72317324 -11.26989982 29.56920679 -9.35546875 35.3125 C-10.67546875 35.3125 -11.99546875 35.3125 -13.35546875 35.3125 C-15.44606632 31.13130486 -14.79052282 25.86566867 -14.35546875 21.3125 C-12.60546875 17.8125 -12.60546875 17.8125 -10.35546875 15.3125 C-9.75734375 14.549375 -9.15921875 13.78625 -8.54296875 13 C-5.59187562 10.72344244 -3.01324785 10.59386762 0.64453125 10.3125 C0.64453125 11.6325 0.64453125 12.9525 0.64453125 14.3125 C1.30453125 14.3125 1.96453125 14.3125 2.64453125 14.3125 C3.41169976 11.46171909 3.41169976 11.46171909 3.64453125 8.3125 C2.33134863 6.41291919 2.33134863 6.41291919 0.64453125 5.3125 C0.64453125 6.3025 0.64453125 7.2925 0.64453125 8.3125 C-0.57234375 8.704375 -1.78921875 9.09625 -3.04296875 9.5 C-8.25109247 11.46914925 -11.06735943 14.4025448 -14.16796875 19 C-15.98843904 24.07815396 -16.45248451 29.20428869 -14.62890625 34.37109375 C-11.99791591 39.34430719 -8.60657543 42.23810818 -3.60546875 44.625 C2.04647693 45.82060389 7.28402759 45.27810703 12.45703125 42.625 C16.97679406 39.34595639 19.21715285 36.16380737 20.48046875 30.69140625 C20.65835938 29.43199219 20.83625 28.17257813 21.01953125 26.875 C22.07670897 20.69596552 23.37393996 16.07210914 28.64453125 12.3125 C34.10498748 9.10179696 38.54812426 8.91332462 44.64453125 10.3125 C49.59904024 12.50170164 53.22234063 16.46811876 55.64453125 21.3125 C56.36671633 28.45147709 56.0941336 33.57485486 51.64453125 39.3125 C48.08490351 42.1904969 45.20330392 43.7761738 40.64453125 44.3125 C40.14953125 42.3325 40.14953125 42.3325 39.64453125 40.3125 C37.81792928 44.43398343 37.81792928 44.43398343 38.51953125 48.6875 C38.89078125 49.22375 39.26203125 49.76 39.64453125 50.3125 C40.30453125 50.3125 40.96453125 50.3125 41.64453125 50.3125 C41.14953125 48.3325 41.14953125 48.3325 40.64453125 46.3125 C41.32 46.00957031 41.99546875 45.70664062 42.69140625 45.39453125 C49.41382969 42.23732371 53.64757539 39.29693102 56.64453125 32.3125 C57.32570467 26.33219809 56.60956269 20.96196539 54.64453125 15.3125 C55.63453125 14.9825 56.62453125 14.6525 57.64453125 14.3125 C61.64733848 20.14992721 61.38421299 26.44522745 60.64453125 33.3125 C58.96101369 39.49541867 54.98985957 43.88814904 49.64453125 47.3125 C46.70703125 48.1875 46.70703125 48.1875 44.64453125 48.3125 C44.31453125 49.9625 43.98453125 51.6125 43.64453125 53.3125 C41.45703125 53.625 41.45703125 53.625 38.64453125 53.3125 C35.59877483 50.75129574 33.90946572 49.10730342 32.64453125 45.3125 C32.31453125 45.6425 31.98453125 45.9725 31.64453125 46.3125 C28.95140603 46.77417861 27.28051066 46.73947209 24.98046875 45.1953125 C23.49407718 43.94843427 22.06506131 42.63392331 20.64453125 41.3125 C20.12503906 41.72242188 19.60554688 42.13234375 19.0703125 42.5546875 C11.89242602 48.10063306 6.82151494 50.22011377 -2.35546875 49.3125 C-9.01840765 47.27973898 -14.40754936 43.51524189 -18.03515625 37.55078125 C-19.52078951 33.90702393 -19.75627647 31.23527338 -19.73046875 27.3125 C-19.73820312 26.136875 -19.7459375 24.96125 -19.75390625 23.75 C-19.07811849 17.91967422 -16.27858494 13.5817735 -12.35546875 9.3125 C-9.36040332 7.19403908 -8.04896311 6.3125 -4.35546875 6.3125 C-4.21109375 5.508125 -4.06671875 4.70375 -3.91796875 3.875 C-3.15936826 0.41915333 -3.15936826 0.41915333 0 0 Z M26.83203125 19 C24.70052945 23.1508193 23.83079361 27.75431231 25.26953125 32.27734375 C27.56086691 36.64042874 30.73860402 39.38305458 34.64453125 42.3125 C35.03640625 41.4875 35.42828125 40.6625 35.83203125 39.8125 C36.43015625 38.9875 37.02828125 38.1625 37.64453125 37.3125 C40.33203125 37 40.33203125 37 42.64453125 37.3125 C42.97453125 37.9725 43.30453125 38.6325 43.64453125 39.3125 C46.81486167 38.97282174 47.64335732 38.31380809 49.83203125 35.875 C52.77866531 31.70906909 53.30032259 28.35845003 52.64453125 23.3125 C51.320103 19.67032232 49.37442913 16.95898098 46.45703125 14.375 C38.50034034 11.36913899 32.94042478 13.31287499 26.83203125 19 Z M22.64453125 35.3125 C22.99332757 38.56793229 23.66586386 39.33123107 26.20703125 41.5625 C27.01140625 42.14 27.81578125 42.7175 28.64453125 43.3125 C28.9882333 40.35741137 28.9882333 40.35741137 27.33203125 38.92578125 C26.77515625 38.49652344 26.21828125 38.06726562 25.64453125 37.625 C24.65453125 36.861875 23.66453125 36.09875 22.64453125 35.3125 Z " fill="#00191D" transform="translate(19.35546875,6.6875)"/>
<path d="M0 0 C2 3 2 3 1.75 5.5625 C1 8 1 8 -1 10 C-4.625 9.625 -4.625 9.625 -8 9 C-9.32561852 2.61292897 -9.32561852 2.61292897 -7.9375 0 C-4.99948754 -1.51639353 -3.09843192 -0.92293717 0 0 Z M-4 2 C-4.99 3.485 -4.99 3.485 -6 5 C-4.515 5.99 -4.515 5.99 -3 7 C-2.34 6.01 -1.68 5.02 -1 4 C-1.99 3.34 -2.98 2.68 -4 2 Z " fill="#00191D" transform="translate(48,63)"/>
<path d="M0 0 C6.875 0.875 6.875 0.875 8 2 C8.1875 5.4375 8.1875 5.4375 8 9 C6 11 6 11 2.875 11.125 C1.451875 11.063125 1.451875 11.063125 0 11 C0 7.37 0 3.74 0 0 Z M3 3 C3 4.65 3 6.3 3 8 C3.66 7.67 4.32 7.34 5 7 C4.67 5.68 4.34 4.36 4 3 C3.67 3 3.34 3 3 3 Z " fill="#00191E" transform="translate(12,62)"/>
<path d="M0 0 C2.97 0.495 2.97 0.495 6 1 C6 3.97 6 6.94 6 10 C0.25 11.125 0.25 11.125 -2 10 C-1.7215625 9.1028125 -1.7215625 9.1028125 -1.4375 8.1875 C-0.77906313 5.83591238 -0.77906313 5.83591238 -2 3 C-1.34 2.01 -0.68 1.02 0 0 Z " fill="#00181D" transform="translate(62,62)"/>
<path d="M0 0 C2.5625 0.1875 2.5625 0.1875 4.5625 2.1875 C4.1875 4.8125 4.1875 4.8125 3.5625 7.1875 C2.5725 7.5175 1.5825 7.8475 0.5625 8.1875 C0.2325 9.1775 -0.0975 10.1675 -0.4375 11.1875 C-1.4275 10.8575 -2.4175 10.5275 -3.4375 10.1875 C-3.46439216 8.70843108 -3.48384621 7.22922517 -3.5 5.75 C-3.51160156 4.92628906 -3.52320313 4.10257812 -3.53515625 3.25390625 C-3.39211585 0.22717144 -3.02891307 0.23299331 0 0 Z " fill="#00191E" transform="translate(54.4375,61.8125)"/>
<path d="M0 0 C0.99 0.33 1.98 0.66 3 1 C3 1.66 3 2.32 3 3 C3.66 3 4.32 3 5 3 C5.33 2.01 5.66 1.02 6 0 C6.66 0 7.32 0 8 0 C7.25 7.625 7.25 7.625 5 11 C2 10 2 10 0.8125 7.75 C0.00061706 5.00208853 -0.16260121 2.84552111 0 0 Z " fill="#00191D" transform="translate(30,62)"/>
<path d="M0 0 C1.98 0 3.96 0 6 0 C6 3.63 6 7.26 6 11 C4.02 11 2.04 11 0 11 C0 7.37 0 3.74 0 0 Z " fill="#00191E" transform="translate(22,62)"/>
</svg>
