<?xml version="1.0" encoding="UTF-8"?>
<svg version="1.1" xmlns="http://www.w3.org/2000/svg" width="80" height="81">
<path d="M0 0 C0.87100342 -0.01268417 1.74200684 -0.02536835 2.6394043 -0.03843689 C4.0457312 -0.03403343 4.0457312 -0.03403343 5.48046875 -0.02954102 C6.92836792 -0.03740379 6.92836792 -0.03740379 8.40551758 -0.04542542 C10.44644203 -0.05184919 12.4874035 -0.05050404 14.52832031 -0.04199219 C17.65626699 -0.03347911 20.78238995 -0.06224392 23.91015625 -0.09399414 C25.89192653 -0.0956061 27.87370006 -0.09502872 29.85546875 -0.09204102 C30.79302002 -0.10327499 31.73057129 -0.11450897 32.6965332 -0.12608337 C39.07259608 -0.05741139 39.07259608 -0.05741139 41.76293945 2.02783203 C42.94113446 5.12126931 43.00610257 7.60757268 42.9609375 10.91967773 C42.94643555 12.79526367 42.94643555 12.79526367 42.93164062 14.70874023 C42.90650391 16.01069336 42.88136719 17.31264648 42.85546875 18.65405273 C42.83516602 20.63018555 42.83516602 20.63018555 42.81445312 22.64624023 C42.77909426 25.89925595 42.72973908 29.15144874 42.66796875 32.40405273 C41.67796875 32.40405273 40.68796875 32.40405273 39.66796875 32.40405273 C39.33796875 23.49405273 39.00796875 14.58405273 38.66796875 5.40405273 C36.35796875 4.74405273 34.04796875 4.08405273 31.66796875 3.40405273 C31.56484375 4.18780273 31.46171875 4.97155273 31.35546875 5.77905273 C30.66796875 8.40405273 30.66796875 8.40405273 27.66796875 10.40405273 C24.18306699 10.85997106 20.67956349 10.7743518 17.16796875 10.77905273 C16.20503906 10.80354492 15.24210937 10.82803711 14.25 10.85327148 C13.32574219 10.85713867 12.40148437 10.86100586 11.44921875 10.86499023 C10.18174805 10.87731689 10.18174805 10.87731689 8.88867188 10.88989258 C6.66796875 10.40405273 6.66796875 10.40405273 4.86914062 8.56274414 C3.66796875 6.40405273 3.66796875 6.40405273 3.66796875 3.40405273 C1.35796875 4.06405273 -0.95203125 4.72405273 -3.33203125 5.40405273 C-3.3551567 14.51364438 -3.37294737 23.62322599 -3.38384342 32.73284054 C-3.38907181 36.96236644 -3.39616865 41.19187233 -3.4074707 45.42138672 C-3.41830116 49.49973816 -3.42430842 53.5780703 -3.42690849 57.65643501 C-3.42876246 59.21582913 -3.43238252 60.77522214 -3.43776131 62.33460808 C-3.44497387 64.51134435 -3.4460221 66.68799988 -3.44555664 68.86474609 C-3.44777725 70.10606796 -3.44999786 71.34738983 -3.45228577 72.62632751 C-3.64950136 75.31186974 -3.64950136 75.31186974 -2.33203125 76.40405273 C0.61332445 76.50515627 3.53474435 76.54374553 6.48046875 76.53686523 C7.36452393 76.53782196 8.2485791 76.53877869 9.15942383 76.5397644 C11.03239004 76.54044625 12.90535861 76.53859166 14.77832031 76.53442383 C17.65565263 76.52907563 20.53282883 76.53436867 23.41015625 76.54077148 C25.22526076 76.5401107 27.04036518 76.53882954 28.85546875 76.53686523 C30.155448 76.53990158 30.155448 76.53990158 31.48168945 76.54299927 C35.38800094 76.91665687 35.38800094 76.91665687 38.66796875 75.40405273 C38.8253748 73.69841495 38.91890267 71.98678029 38.984375 70.27514648 C39.0472168 68.7234375 39.0472168 68.7234375 39.11132812 67.14038086 C39.15064453 66.05176758 39.18996094 64.9631543 39.23046875 63.84155273 C39.27365234 62.74907227 39.31683594 61.6565918 39.36132812 60.53100586 C39.46778943 57.8221571 39.56980391 55.11321281 39.66796875 52.40405273 C40.98796875 52.40405273 42.30796875 52.40405273 43.66796875 52.40405273 C44.32796875 50.75405273 44.98796875 49.10405273 45.66796875 47.40405273 C48.63796875 47.40405273 51.60796875 47.40405273 54.66796875 47.40405273 C54.66796875 46.74405273 54.66796875 46.08405273 54.66796875 45.40405273 C55.65796875 45.40405273 56.64796875 45.40405273 57.66796875 45.40405273 C57.66796875 46.06405273 57.66796875 46.72405273 57.66796875 47.40405273 C59.64796875 47.89905273 59.64796875 47.89905273 61.66796875 48.40405273 C62.35546875 50.71655273 62.35546875 50.71655273 62.66796875 53.40405273 C61.1875 55.07202148 61.1875 55.07202148 59.66796875 56.40405273 C60.17328125 56.85135742 60.67859375 57.29866211 61.19921875 57.75952148 C66.53144998 62.72145888 66.53144998 62.72145888 67.23046875 66.21655273 C66.66796875 68.40405273 66.66796875 68.40405273 64.66796875 70.40405273 C60.49481364 70.13414718 58.36105797 68.6433732 55.35546875 65.84155273 C54.65808594 65.20088867 53.96070313 64.56022461 53.2421875 63.90014648 C52.72269531 63.40643555 52.20320313 62.91272461 51.66796875 62.40405273 C51.33796875 63.39405273 51.00796875 64.38405273 50.66796875 65.40405273 C48.29296875 65.52905273 48.29296875 65.52905273 45.66796875 65.40405273 C45.00796875 64.74405273 44.34796875 64.08405273 43.66796875 63.40405273 C43.63058594 64.29608398 43.59320313 65.18811523 43.5546875 66.10717773 C43.48894531 67.27764648 43.42320313 68.44811523 43.35546875 69.65405273 C43.26845703 71.39428711 43.26845703 71.39428711 43.1796875 73.16967773 C42.60615293 76.79476648 42.41187266 77.99295781 39.66796875 80.40405273 C36.40389974 81.01475429 33.16734276 80.9398302 29.85546875 80.90014648 C28.89020264 80.90160172 27.92493652 80.90305695 26.93041992 80.90455627 C24.88945498 80.90289617 22.84847766 80.89132242 20.80761719 80.87060547 C17.6797988 80.8416622 14.55367576 80.84999191 11.42578125 80.86303711 C9.44400216 80.8567995 7.46222843 80.84840838 5.48046875 80.83764648 C4.54291748 80.84058212 3.60536621 80.84351776 2.6394043 80.84654236 C1.76840088 80.83385818 0.89739746 80.82117401 0 80.80810547 C-0.76594482 80.80270248 -1.53188965 80.7972995 -2.32104492 80.79173279 C-4.33203125 80.40405273 -4.33203125 80.40405273 -6.07852173 79.32167053 C-8.00848227 76.36921855 -7.71378647 73.81645061 -7.72021484 70.31811523 C-7.7254718 69.60073181 -7.73072876 68.88334839 -7.73614502 68.14422607 C-7.7493517 65.77228031 -7.74060501 63.40100535 -7.73046875 61.02905273 C-7.7324893 59.38142772 -7.73540059 57.73380359 -7.73916626 56.08618164 C-7.7435905 52.63280728 -7.73715546 49.17966567 -7.72314453 45.72631836 C-7.70605243 41.29742913 -7.7158931 36.86908528 -7.73386192 32.44021606 C-7.74469715 29.0378813 -7.74125466 25.63567605 -7.73347855 22.2333374 C-7.73147581 20.60023942 -7.73393841 18.96712971 -7.74091721 17.33404541 C-7.74852759 15.05237636 -7.73693434 12.77159322 -7.72021484 10.48999023 C-7.71782806 9.19109863 -7.71544128 7.89220703 -7.71298218 6.55395508 C-7.33203125 3.40405273 -7.33203125 3.40405273 -6.07852173 1.48643494 C-3.90323502 0.13830757 -2.55420737 0.01801741 0 0 Z M6.66796875 3.40405273 C7.32796875 4.72405273 7.98796875 6.04405273 8.66796875 7.40405273 C10.64796875 7.40405273 12.62796875 7.40405273 14.66796875 7.40405273 C14.66796875 6.08405273 14.66796875 4.76405273 14.66796875 3.40405273 C12.02796875 3.40405273 9.38796875 3.40405273 6.66796875 3.40405273 Z M20.66796875 3.40405273 C20.66796875 4.72405273 20.66796875 6.04405273 20.66796875 7.40405273 C22.64796875 7.40405273 24.62796875 7.40405273 26.66796875 7.40405273 C26.99796875 6.08405273 27.32796875 4.76405273 27.66796875 3.40405273 C25.35796875 3.40405273 23.04796875 3.40405273 20.66796875 3.40405273 Z M47.66796875 50.40405273 C47.66796875 54.36405273 47.66796875 58.32405273 47.66796875 62.40405273 C47.99796875 62.40405273 48.32796875 62.40405273 48.66796875 62.40405273 C48.66796875 60.42405273 48.66796875 58.44405273 48.66796875 56.40405273 C52.7095883 57.74889987 55.05475029 59.45456893 57.98046875 62.52905273 C58.67785156 63.25350586 59.37523438 63.97795898 60.09375 64.72436523 C60.61324219 65.27866211 61.13273437 65.83295898 61.66796875 66.40405273 C62.32796875 66.07405273 62.98796875 65.74405273 63.66796875 65.40405273 C62.95769531 64.71698242 62.24742188 64.02991211 61.515625 63.32202148 C60.13697266 61.97043945 60.13697266 61.97043945 58.73046875 60.59155273 C57.81394531 59.69823242 56.89742187 58.80491211 55.953125 57.88452148 C53.66796875 55.40405273 53.66796875 55.40405273 52.66796875 52.40405273 C54.64796875 52.40405273 56.62796875 52.40405273 58.66796875 52.40405273 C58.66796875 51.74405273 58.66796875 51.08405273 58.66796875 50.40405273 C55.03796875 50.40405273 51.40796875 50.40405273 47.66796875 50.40405273 Z " fill="#00191E" transform="translate(10.33203125,-0.404052734375)"/>
<path d="M0 0 C1.32 0 2.64 0 4 0 C4 0.99 4 1.98 4 3 C3.01 3.495 3.01 3.495 2 4 C1.67 10.6 1.34 17.2 1 24 C7.93 24 14.86 24 22 24 C22 17.07 22 10.14 22 3 C17.05 3 12.1 3 7 3 C7 2.01 7 1.02 7 0 C9.79224073 -0.08071788 12.58216566 -0.14035408 15.375 -0.1875 C16.1690625 -0.21263672 16.963125 -0.23777344 17.78125 -0.26367188 C19.85586148 -0.29004405 21.93100865 -0.15486462 24 0 C26.17746353 3.2661953 26.25606429 4.24945834 26.265625 8.03515625 C26.26949219 9.49598633 26.26949219 9.49598633 26.2734375 10.98632812 C26.26570313 12.00146484 26.25796875 13.01660156 26.25 14.0625 C26.25773437 15.08150391 26.26546875 16.10050781 26.2734375 17.15039062 C26.27085938 18.12298828 26.26828125 19.09558594 26.265625 20.09765625 C26.26336914 20.98976807 26.26111328 21.88187988 26.25878906 22.80102539 C26 25 26 25 24 27 C21.6015625 27.25878906 21.6015625 27.25878906 18.625 27.265625 C17.55765625 27.26820312 16.4903125 27.27078125 15.390625 27.2734375 C13.71226563 27.26183594 13.71226563 27.26183594 12 27.25 C10.88109375 27.25773437 9.7621875 27.26546875 8.609375 27.2734375 C7.54203125 27.27085938 6.4746875 27.26828125 5.375 27.265625 C4.39273437 27.26336914 3.41046875 27.26111328 2.3984375 27.25878906 C-0 27 -0 27 -2 25 C-2.25878906 22.69335938 -2.25878906 22.69335938 -2.265625 19.84375 C-2.26820312 18.82152344 -2.27078125 17.79929687 -2.2734375 16.74609375 C-2.26183594 15.13927734 -2.26183594 15.13927734 -2.25 13.5 C-2.25773438 12.42878906 -2.26546875 11.35757812 -2.2734375 10.25390625 C-2.27085938 9.23167969 -2.26828125 8.20945312 -2.265625 7.15625 C-2.26336914 6.21587891 -2.26111328 5.27550781 -2.25878906 4.30664062 C-2 2 -2 2 0 0 Z " fill="#00191E" transform="translate(16,15)"/>
<path d="M0 0 C0.99 0 1.98 0 3 0 C3.06058594 1.14339844 3.12117188 2.28679688 3.18359375 3.46484375 C3.26798428 4.95574305 3.35263302 6.44662775 3.4375 7.9375 C3.47681641 8.69224609 3.51613281 9.44699219 3.55664062 10.22460938 C3.44038024 13.91944187 3.44038024 13.91944187 5 17 C7.31 17 9.62 17 12 17 C12.33 11.39 12.66 5.78 13 0 C13.99 0 14.98 0 16 0 C16.10812003 2.75105422 16.18734945 5.49785087 16.25 8.25 C16.30027344 9.41595703 16.30027344 9.41595703 16.3515625 10.60546875 C16.45060588 16.39950639 16.45060588 16.39950639 14.1328125 19.48828125 C11.57766027 21.29935069 10.14286545 21.92516987 7 22 C1.36144578 19.72289157 1.36144578 19.72289157 0 17 C-0.07194869 14.11629667 -0.09291708 11.25760336 -0.0625 8.375 C-0.05798828 7.57320312 -0.05347656 6.77140625 -0.04882812 5.9453125 C-0.03703168 3.96350994 -0.01909605 1.98174567 0 0 Z " fill="#00191E" transform="translate(16,51)"/>
<path d="M0 0 C0.99 0 1.98 0 3 0 C3 6.93 3 13.86 3 21 C2.01 21 1.02 21 0 21 C0 14.07 0 7.14 0 0 Z " fill="#00191E" transform="translate(37,51)"/>
<path d="M0 0 C4.95 0 9.9 0 15 0 C14.67 0.99 14.34 1.98 14 3 C9.38 3 4.76 3 0 3 C0 2.01 0 1.02 0 0 Z " fill="#00191D" transform="translate(21,29)"/>
<path d="M0 0 C2.64 0 5.28 0 8 0 C8.33 0.99 8.66 1.98 9 3 C6.04335481 4.4783226 3.25770263 4.06032783 0 4 C0 2.68 0 1.36 0 0 Z " fill="#00191D" transform="translate(27,24)"/>
<path d="M0 0 C0.99 0.33 1.98 0.66 3 1 C3 2.65 3 4.3 3 6 C2.01 6 1.02 6 0 6 C0 4.02 0 2.04 0 0 Z " fill="#00191E" transform="translate(45,39)"/>
<path d="M0 0 C0.99 0 1.98 0 3 0 C3 1.65 3 3.3 3 5 C2.01 5.33 1.02 5.66 0 6 C0 4.02 0 2.04 0 0 Z " fill="#00191D" transform="translate(65,37)"/>
<path d="M0 0 C1.65 0 3.3 0 5 0 C5 1.32 5 2.64 5 4 C2.525 3.01 2.525 3.01 0 2 C0 1.34 0 0.68 0 0 Z " fill="#00191E" transform="translate(60,32)"/>
<path d="M0 0 C0.99 0.33 1.98 0.66 3 1 C3 2.65 3 4.3 3 6 C2.01 5.67 1.02 5.34 0 5 C0 3.35 0 1.7 0 0 Z " fill="#00191E" transform="translate(45,47)"/>
<path d="M0 0 C1.65 0 3.3 0 5 0 C5 0.99 5 1.98 5 3 C3.35 3 1.7 3 0 3 C0 2.01 0 1.02 0 0 Z " fill="#00191E" transform="translate(53,32)"/>
<path d="M0 0 C0.66 0.33 1.32 0.66 2 1 C1.34 2.32 0.68 3.64 0 5 C-0.99 5 -1.98 5 -3 5 C-2.625 3.0625 -2.625 3.0625 -2 1 C-1.34 0.67 -0.68 0.34 0 0 Z " fill="#00191E" transform="translate(48,32)"/>
<path d="M0 0 C0.99 0.33 1.98 0.66 3 1 C3 1.66 3 2.32 3 3 C2.01 3 1.02 3 0 3 C0 2.01 0 1.02 0 0 Z " fill="#00191E" transform="translate(21,24)"/>
<path d="M0 0 C0.99 0 1.98 0 3 0 C2.67 0.99 2.34 1.98 2 3 C1.34 3 0.68 3 0 3 C0 2.01 0 1.02 0 0 Z " fill="#00191E" transform="translate(44,5)"/>
</svg>
