<?xml version="1.0" encoding="UTF-8"?>
<svg version="1.1" xmlns="http://www.w3.org/2000/svg" width="81" height="81">
<path d="M0 0 C0.69512695 -0.00287018 1.39025391 -0.00574036 2.10644531 -0.00869751 C3.57227394 -0.01073384 5.03813001 -0.00523406 6.50390625 0.00732422 C8.74280777 0.0233859 10.97990437 0.00746292 13.21875 -0.01171875 C14.6458373 -0.00973624 16.07292349 -0.0058924 17.5 0 C19.44132812 0.00507568 19.44132812 0.00507568 21.421875 0.01025391 C24.96222864 0.42319128 26.45402474 0.67687204 28.75 3.3984375 C29.20410156 6.2175293 29.20410156 6.2175293 29.140625 9.59765625 C29.12773438 10.80615234 29.11484375 12.01464844 29.1015625 13.25976562 C29.06804688 14.52240234 29.03453125 15.78503906 29 17.0859375 C28.98195312 18.36017578 28.96390625 19.63441406 28.9453125 20.94726562 C28.89810441 24.09840591 28.83226384 27.2480489 28.75 30.3984375 C29.389375 30.5015625 30.02875 30.6046875 30.6875 30.7109375 C31.368125 30.9378125 32.04875 31.1646875 32.75 31.3984375 C33.245 32.8834375 33.245 32.8834375 33.75 34.3984375 C34.6575 34.1509375 35.565 33.9034375 36.5 33.6484375 C39.75 33.3984375 39.75 33.3984375 42.1875 34.9609375 C43.75 37.3984375 43.75 37.3984375 43.5 40.6484375 C43.12875 42.0096875 43.12875 42.0096875 42.75 43.3984375 C44.07 44.0584375 45.39 44.7184375 46.75 45.3984375 C46.75 47.3784375 46.75 49.3584375 46.75 51.3984375 C44.77 52.3884375 44.77 52.3884375 42.75 53.3984375 C42.9975 54.3059375 43.245 55.2134375 43.5 56.1484375 C43.75 59.3984375 43.75 59.3984375 42.1875 61.8359375 C39.75 63.3984375 39.75 63.3984375 36.5 63.1484375 C35.5925 62.9009375 34.685 62.6534375 33.75 62.3984375 C33.09 63.7184375 32.43 65.0384375 31.75 66.3984375 C31.09 66.3984375 30.43 66.3984375 29.75 66.3984375 C29.6675 67.4915625 29.585 68.5846875 29.5 69.7109375 C28.75 73.3984375 28.75 73.3984375 27.15625 75.10400391 C23.84371511 76.88597022 21.25167965 76.78706608 17.5 76.796875 C16.45730957 76.80118027 16.45730957 76.80118027 15.39355469 76.80557251 C13.92772606 76.80760884 12.46186999 76.80210906 10.99609375 76.78955078 C8.75719223 76.7734891 6.52009563 76.78941208 4.28125 76.80859375 C2.8541627 76.80661124 1.42707651 76.8027674 0 76.796875 C-1.29421875 76.79349121 -2.5884375 76.79010742 -3.921875 76.78662109 C-7.46222864 76.37368372 -8.95402474 76.12000296 -11.25 73.3984375 C-11.70410156 70.5793457 -11.70410156 70.5793457 -11.640625 67.19921875 C-11.62128906 65.38647461 -11.62128906 65.38647461 -11.6015625 63.53710938 C-11.56804688 62.27447266 -11.53453125 61.01183594 -11.5 59.7109375 C-11.48195313 58.43669922 -11.46390625 57.16246094 -11.4453125 55.84960938 C-11.39810441 52.69846909 -11.33226384 49.5488261 -11.25 46.3984375 C-11.889375 46.2953125 -12.52875 46.1921875 -13.1875 46.0859375 C-14.2084375 45.745625 -14.2084375 45.745625 -15.25 45.3984375 C-15.745 43.9134375 -15.745 43.9134375 -16.25 42.3984375 C-17.1575 42.6459375 -18.065 42.8934375 -19 43.1484375 C-22.25 43.3984375 -22.25 43.3984375 -24.6875 41.8359375 C-26.25 39.3984375 -26.25 39.3984375 -26 36.1484375 C-25.7525 35.2409375 -25.505 34.3334375 -25.25 33.3984375 C-26.57 32.7384375 -27.89 32.0784375 -29.25 31.3984375 C-29.25 29.4184375 -29.25 27.4384375 -29.25 25.3984375 C-27.93 24.7384375 -26.61 24.0784375 -25.25 23.3984375 C-25.4975 22.4909375 -25.745 21.5834375 -26 20.6484375 C-26.25 17.3984375 -26.25 17.3984375 -24.6875 14.9609375 C-22.25 13.3984375 -22.25 13.3984375 -19 13.6484375 C-18.0925 13.8959375 -17.185 14.1434375 -16.25 14.3984375 C-15.59 13.0784375 -14.93 11.7584375 -14.25 10.3984375 C-13.59 10.3984375 -12.93 10.3984375 -12.25 10.3984375 C-12.1675 9.3053125 -12.085 8.2121875 -12 7.0859375 C-11.25 3.3984375 -11.25 3.3984375 -9.65625 1.69287109 C-6.34371511 -0.08909522 -3.75167965 0.00980892 0 0 Z M-8.25 5.3984375 C-8.71103684 8.25250957 -8.71103684 8.25250957 -8.63818359 11.65234375 C-8.64764008 12.96710693 -8.65709656 14.28187012 -8.6668396 15.63647461 C-8.66147009 17.07796529 -8.65531719 18.51945324 -8.6484375 19.9609375 C-8.65045752 21.43302556 -8.65336835 22.90511264 -8.65713501 24.37719727 C-8.66156182 27.46412676 -8.65511614 30.55079604 -8.64111328 33.63769531 C-8.62402084 37.59927583 -8.63386017 41.56024668 -8.65183067 45.52180481 C-8.6626591 48.56209934 -8.65922659 51.60224876 -8.6514473 54.64254761 C-8.64944266 56.1034248 -8.65191379 57.56431507 -8.65888596 59.025177 C-8.66648408 61.06495927 -8.65285452 63.10478759 -8.63818359 65.14453125 C-8.63460342 66.88754517 -8.63460342 66.88754517 -8.63095093 68.66577148 C-8.50523712 69.56755127 -8.37952332 70.46933105 -8.25 71.3984375 C-4.70128499 73.76424751 -3.14408047 73.65572556 1.0625 73.6640625 C2.30257812 73.66664062 3.54265625 73.66921875 4.8203125 73.671875 C6.76550781 73.66027344 6.76550781 73.66027344 8.75 73.6484375 C10.04679687 73.65617187 11.34359375 73.66390625 12.6796875 73.671875 C13.91976562 73.66929688 15.15984375 73.66671875 16.4375 73.6640625 C17.57574219 73.66180664 18.71398437 73.65955078 19.88671875 73.65722656 C22.94980153 73.61013461 22.94980153 73.61013461 25.75 71.3984375 C26.21103684 68.54436543 26.21103684 68.54436543 26.13818359 65.14453125 C26.14764008 63.82976807 26.15709656 62.51500488 26.1668396 61.16040039 C26.16147009 59.71890971 26.15531719 58.27742176 26.1484375 56.8359375 C26.15045752 55.36384944 26.15336835 53.89176236 26.15713501 52.41967773 C26.16156182 49.33274824 26.15511614 46.24607896 26.14111328 43.15917969 C26.12402084 39.19759917 26.13386017 35.23662832 26.15183067 31.27507019 C26.1626591 28.23477566 26.15922659 25.19462624 26.1514473 22.15432739 C26.14944266 20.6934502 26.15191379 19.23255993 26.15888596 17.771698 C26.16648408 15.73191573 26.15285452 13.69208741 26.13818359 11.65234375 C26.13460342 9.90932983 26.13460342 9.90932983 26.13095093 8.13110352 C26.00523712 7.22932373 25.87952332 6.32754395 25.75 5.3984375 C22.20128499 3.03262749 20.64408047 3.14114944 16.4375 3.1328125 C15.19742188 3.13023438 13.95734375 3.12765625 12.6796875 3.125 C10.73449219 3.13660156 10.73449219 3.13660156 8.75 3.1484375 C7.45320313 3.14070312 6.15640625 3.13296875 4.8203125 3.125 C3.58023438 3.12757812 2.34015625 3.13015625 1.0625 3.1328125 C-0.07574219 3.13506836 -1.21398437 3.13732422 -2.38671875 3.13964844 C-5.44980153 3.18674039 -5.44980153 3.18674039 -8.25 5.3984375 Z M-12.25 13.3984375 C-12.25 14.7184375 -12.25 16.0384375 -12.25 17.3984375 C-16.705 17.8934375 -16.705 17.8934375 -21.25 18.3984375 C-21.58 21.3684375 -21.91 24.3384375 -22.25 27.3984375 C-23.57 27.3984375 -24.89 27.3984375 -26.25 27.3984375 C-26.25 28.0584375 -26.25 28.7184375 -26.25 29.3984375 C-24.93 29.3984375 -23.61 29.3984375 -22.25 29.3984375 C-21.92 32.6984375 -21.59 35.9984375 -21.25 39.3984375 C-20.5075 39.2128125 -19.765 39.0271875 -19 38.8359375 C-16.30009037 38.40640642 -14.80368923 38.54720776 -12.25 39.3984375 C-11.92 40.7184375 -11.59 42.0384375 -11.25 43.3984375 C-11.25 41.0884375 -11.25 38.7784375 -11.25 36.3984375 C-12.219375 35.9446875 -13.18875 35.4909375 -14.1875 35.0234375 C-17.25 33.3984375 -17.25 33.3984375 -18.25 31.3984375 C-18.50860135 27.34701631 -18.55441554 25.85506081 -16.25 22.3984375 C-15.26 22.0684375 -14.27 21.7384375 -13.25 21.3984375 C-13.58 21.9346875 -13.91 22.4709375 -14.25 23.0234375 C-15.47699204 25.9375436 -15.39233286 28.26711458 -15.25 31.3984375 C-13.93 31.7284375 -12.61 32.0584375 -11.25 32.3984375 C-11.25 26.1284375 -11.25 19.8584375 -11.25 13.3984375 C-11.58 13.3984375 -11.91 13.3984375 -12.25 13.3984375 Z M28.75 33.3984375 C28.75 35.7084375 28.75 38.0184375 28.75 40.3984375 C29.719375 40.8521875 30.68875 41.3059375 31.6875 41.7734375 C34.75 43.3984375 34.75 43.3984375 35.75 45.3984375 C36.00860135 49.44985869 36.05441554 50.94181419 33.75 54.3984375 C32.76 54.7284375 31.77 55.0584375 30.75 55.3984375 C31.08 54.8621875 31.41 54.3259375 31.75 53.7734375 C32.97699204 50.8593314 32.89233286 48.52976042 32.75 45.3984375 C31.43 45.0684375 30.11 44.7384375 28.75 44.3984375 C28.75 50.9984375 28.75 57.5984375 28.75 64.3984375 C29.08 64.3984375 29.41 64.3984375 29.75 64.3984375 C29.75 62.7484375 29.75 61.0984375 29.75 59.3984375 C33.05 59.0684375 36.35 58.7384375 39.75 58.3984375 C39.42 57.0784375 39.09 55.7584375 38.75 54.3984375 C39.1875 51.6484375 39.1875 51.6484375 39.75 49.3984375 C41.07 49.3984375 42.39 49.3984375 43.75 49.3984375 C43.75 48.7384375 43.75 48.0784375 43.75 47.3984375 C42.43 47.3984375 41.11 47.3984375 39.75 47.3984375 C38.625 40.6484375 38.625 40.6484375 39.75 38.3984375 C36.45 38.0684375 33.15 37.7384375 29.75 37.3984375 C29.42 36.0784375 29.09 34.7584375 28.75 33.3984375 Z " fill="#00191E" transform="translate(31.25,1.6015625)"/>
<path d="M0 0 C3.36591866 1.44253657 5.51047079 3.33264727 8 6 C6.55922954 9.36179774 4.75249979 11.59156268 2 14 C1.34 14 0.68 14 0 14 C0.165 13.2575 0.33 12.515 0.5 11.75 C1.255222 7.59627901 0.90487749 4.07194868 0 0 Z " fill="#00191E" transform="translate(45,33)"/>
<path d="M0 0 C-0.165 0.7425 -0.33 1.485 -0.5 2.25 C-1.255222 6.40372099 -0.90487749 9.92805132 0 14 C-3.36591866 12.55746343 -5.51047079 10.66735273 -8 8 C-6.48291727 4.46014029 -4.24676932 0 0 0 Z " fill="#00191E" transform="translate(35,33)"/>
<path d="M0 0 C0.99 0.33 1.98 0.66 3 1 C2.69128878 2.79232337 2.37790936 4.58384321 2.0625 6.375 C1.88847656 7.37273438 1.71445312 8.37046875 1.53515625 9.3984375 C1 12 1 12 0 14 C-0.99 13.67 -1.98 13.34 -3 13 C-2.69128878 11.20767663 -2.37790936 9.41615679 -2.0625 7.625 C-1.88847656 6.62726562 -1.71445312 5.62953125 -1.53515625 4.6015625 C-1 2 -1 2 0 0 Z " fill="#00191E" transform="translate(40,33)"/>
<path d="M0 0 C3.3 0 6.6 0 10 0 C10 0.99 10 1.98 10 3 C6.7 3 3.4 3 0 3 C0 2.01 0 1.02 0 0 Z " fill="#001A1E" transform="translate(35,7)"/>
<path d="M0 0 C0.66 0 1.32 0 2 0 C2 1.32 2 2.64 2 4 C1.01 3.67 0.02 3.34 -1 3 C-0.67 2.01 -0.34 1.02 0 0 Z " fill="#00181D" transform="translate(13,64)"/>
<path d="M0 0 C0.66 0 1.32 0 2 0 C2 1.32 2 2.64 2 4 C1.01 3.67 0.02 3.34 -1 3 C-0.67 2.01 -0.34 1.02 0 0 Z " fill="#00181D" transform="translate(13,59)"/>
<path d="M0 0 C0.66 0 1.32 0 2 0 C2 1.32 2 2.64 2 4 C1.01 3.67 0.02 3.34 -1 3 C-0.67 2.01 -0.34 1.02 0 0 Z " fill="#00181D" transform="translate(13,54)"/>
<path d="M0 0 C0.99 0.33 1.98 0.66 3 1 C2.67 1.99 2.34 2.98 2 4 C1.34 3.67 0.68 3.34 0 3 C0 2.01 0 1.02 0 0 Z " fill="#00191D" transform="translate(65,22)"/>
<path d="M0 0 C0.99 0.33 1.98 0.66 3 1 C2.67 1.99 2.34 2.98 2 4 C1.34 3.67 0.68 3.34 0 3 C0 2.01 0 1.02 0 0 Z " fill="#00191D" transform="translate(65,17)"/>
<path d="M0 0 C0.99 0.33 1.98 0.66 3 1 C2.67 1.99 2.34 2.98 2 4 C1.34 3.67 0.68 3.34 0 3 C0 2.01 0 1.02 0 0 Z " fill="#00191D" transform="translate(65,12)"/>
</svg>
