<?xml version="1.0" encoding="UTF-8"?>
<svg version="1.1" xmlns="http://www.w3.org/2000/svg" width="48" height="48">
<path d="M0 0 C2.611137 2.2629854 2.96165814 3.62424982 3.3125 7.0625 C3 10 3 10 1 13 C5.33013599 15.51752092 7.199729 16.01058337 12 15 C14.25 16.0625 14.25 16.0625 16 18 C17.32367554 22.34921964 17.02104587 24.95790826 15 29 C16.485 29.8353125 16.485 29.8353125 18 30.6875 C21 33 21 33 21.375 35.75 C21.189375 36.86375 21.189375 36.86375 21 38 C20.34 38 19.68 38 19 38 C18.505 36.02 18.505 36.02 18 34 C14.55465996 33.13866499 12.39620354 33.06311626 9 34 C8.01 33.505 8.01 33.505 7 33 C6.01 33.33 5.02 33.66 4 34 C4.66 34.61875 5.32 35.2375 6 35.875 C8 38 8 38 8 40 C10.31 40 12.62 40 15 40 C15 39.34 15 38.68 15 38 C15.66 38 16.32 38 17 38 C17 38.66 17 39.32 17 40 C18.98 39.505 18.98 39.505 21 39 C21 39.99 21 40.98 21 42 C16.71 42 12.42 42 8 42 C8 42.66 8 43.32 8 44 C7.01 44 6.02 44 5 44 C4.67 42.02 4.34 40.04 4 38 C-0.93396878 36.90356249 -5.06603122 36.90356249 -10 38 C-10 39.32 -10 40.64 -10 42 C-9.01 42 -8.02 42 -7 42 C-7 43.32 -7 44.64 -7 46 C-4.36 46 -1.72 46 1 46 C1.33 44.35 1.66 42.7 2 41 C2.66 41.33 3.32 41.66 4 42 C4 43.32 4 44.64 4 46 C5.485 45.505 5.485 45.505 7 45 C7.33 45.99 7.66 46.98 8 48 C0.74 48 -6.52 48 -14 48 C-14 46.02 -14 44.04 -14 42 C-18.29 42 -22.58 42 -27 42 C-27 41.01 -27 40.02 -27 39 C-24.03 38.505 -24.03 38.505 -21 38 C-21 38.66 -21 39.32 -21 40 C-17.56206661 39.81870185 -17.56206661 39.81870185 -14 39 C-12.6237206 37.08235826 -12.6237206 37.08235826 -12 35 C-11.01 34.505 -11.01 34.505 -10 34 C-13.12155879 32.99664182 -14.87400172 33.19329077 -18 34 C-18.99 33.67 -19.98 33.34 -21 33 C-22.485 33.495 -22.485 33.495 -24 34 C-24.73323796 36.01508358 -24.73323796 36.01508358 -25 38 C-25.66 38 -26.32 38 -27 38 C-27.375 35.75 -27.375 35.75 -27 33 C-24 30.6875 -24 30.6875 -21 29 C-21.350625 28.484375 -21.70125 27.96875 -22.0625 27.4375 C-23.40702579 23.94173294 -22.91378144 21.58985565 -22 18 C-20.3125 16 -20.3125 16 -18 15 C-17.030625 15.165 -16.06125 15.33 -15.0625 15.5 C-11.93385083 16.31760986 -11.93385083 16.31760986 -9.125 14.5625 C-8.42375 14.046875 -7.7225 13.53125 -7 13 C-7.66 12.01 -8.32 11.02 -9 10 C-9.54170249 3.93293207 -9.54170249 3.93293207 -7.875 1.0625 C-5.07837528 -0.52225401 -3.1506804 -0.45947423 0 0 Z M-5 2 C-6.41577477 3.18424326 -6.41577477 3.18424326 -6.0625 6.5625 C-6.041875 7.696875 -6.02125 8.83125 -6 10 C-4.02 10.99 -4.02 10.99 -2 12 C0.41121859 10.04366025 0.41121859 10.04366025 0.125 6.375 C0.08375 5.26125 0.0425 4.1475 0 3 C-1.65614657 2.61781233 -3.32457024 2.28604898 -5 2 Z M-11 18 C-11 19.98 -11 21.96 -11 24 C-8.00088704 23.29991911 -8.00088704 23.29991911 -6.6875 21.375 C-5 20 -5 20 -1.9375 20.125 C1 21 1 21 3 24 C3.66 24 4.32 24 5 24 C5 22.02 5 20.04 5 18 C-3.13690088 16.34426578 -3.13690088 16.34426578 -11 18 Z M-19 18 C-20.41577477 19.18424326 -20.41577477 19.18424326 -20.0625 22.5625 C-20.041875 23.696875 -20.02125 24.83125 -20 26 C-17.60280568 26.67958603 -17.60280568 26.67958603 -15 27 C-14.34 26.34 -13.68 25.68 -13 25 C-13.32198966 21.90073181 -13.32198966 21.90073181 -14 19 C-15.65614657 18.61781233 -17.32457024 18.28604898 -19 18 Z M9 18 C6.7508092 19.82703227 6.7508092 19.82703227 6.75 22.5 C6.7508092 25.17296773 6.7508092 25.17296773 9 27 C11.60280568 26.67958603 11.60280568 26.67958603 14 26 C14 23.69 14 21.38 14 19 C11.60280568 18.32041397 11.60280568 18.32041397 9 18 Z M-5 22 C-6.41577477 23.18424326 -6.41577477 23.18424326 -6.0625 26.5625 C-6.041875 27.696875 -6.02125 28.83125 -6 30 C-4.34385343 30.38218767 -2.67542976 30.71395102 -1 31 C0.41577477 29.81575674 0.41577477 29.81575674 0.0625 26.4375 C0.041875 25.303125 0.02125 24.16875 0 23 C-1.65614657 22.61781233 -3.32457024 22.28604898 -5 22 Z M-12 26 C-12.66 27.32 -13.32 28.64 -14 30 C-12.02 30.66 -10.04 31.32 -8 32 C-8.33 30.02 -8.66 28.04 -9 26 C-9.99 26 -10.98 26 -12 26 Z M3 26 C2.34 27.98 1.68 29.96 1 32 C3.31 31.34 5.62 30.68 8 30 C7.34 28.68 6.68 27.36 6 26 C5.01 26 4.02 26 3 26 Z M-7 32 C-6 34 -6 34 -6 34 Z M0 32 C1 34 1 34 1 34 Z " fill="#000000" transform="translate(27,0)"/>
</svg>
