<?xml version="1.0" encoding="UTF-8"?>
<svg version="1.1" xmlns="http://www.w3.org/2000/svg" width="81" height="81">
<path d="M0 0 C2.31 0 4.62 0 7 0 C7 0.99 7 1.98 7 3 C5.68 3.33 4.36 3.66 3 4 C2.67 15.88 2.34 27.76 2 40 C25.1 40 48.2 40 72 40 C71.67 28.12 71.34 16.24 71 4 C69.68 3.67 68.36 3.34 67 3 C67 2.01 67 1.02 67 0 C69.31 0 71.62 0 74 0 C75.2125247 2.42504941 75.13325424 3.98382794 75.14526367 6.69335938 C75.15164352 7.66776978 75.15802338 8.64218018 75.16459656 9.64611816 C75.16570938 10.70133667 75.1668222 11.75655518 75.16796875 12.84375 C75.17296135 14.46379944 75.17296135 14.46379944 75.17805481 16.11657715 C75.18312375 18.40307183 75.18546315 20.68957392 75.18530273 22.97607422 C75.18749094 26.48547455 75.20565192 29.99456152 75.22460938 33.50390625 C75.22754288 35.72135309 75.22952796 37.93880142 75.23046875 40.15625 C75.23765427 41.21146851 75.24483978 42.26668701 75.25224304 43.35388184 C75.24916641 44.32829224 75.24608978 45.30270264 75.24291992 46.30664062 C75.24434494 47.16664673 75.24576996 48.02665283 75.24723816 48.91271973 C75 51 75 51 73 53 C70.03955078 53.25396729 70.03955078 53.25396729 66.1953125 53.25878906 C65.14630768 53.26404602 65.14630768 53.26404602 64.07611084 53.26940918 C61.75897362 53.27822876 59.44214045 53.2723767 57.125 53.265625 C55.51839133 53.26697159 53.91178305 53.26891207 52.30517578 53.27142334 C48.93583298 53.2743749 45.56659613 53.27007597 42.19726562 53.26074219 C37.87260506 53.24934758 33.54819271 53.25590689 29.22354126 53.26788712 C25.9053357 53.27510488 22.58718925 53.27281819 19.26898193 53.26763153 C17.674133 53.2662948 16.07927875 53.26794358 14.48443604 53.27259064 C12.25770802 53.27765456 10.03138524 53.26994788 7.8046875 53.25878906 C5.90178955 53.25640228 5.90178955 53.25640228 3.96044922 53.25396729 C1 53 1 53 -1 51 C-1.24723816 48.91271973 -1.24723816 48.91271973 -1.24291992 46.30664062 C-1.24599655 45.33223022 -1.24907318 44.35781982 -1.25224304 43.35388184 C-1.24505753 42.29866333 -1.23787201 41.24344482 -1.23046875 40.15625 C-1.22978142 38.53620056 -1.22978142 38.53620056 -1.2290802 36.88342285 C-1.22605533 34.59691267 -1.21816209 32.3104046 -1.20581055 30.02392578 C-1.18757573 26.51457456 -1.18530067 23.00548735 -1.18554688 19.49609375 C-1.180631 17.27864354 -1.17480238 15.06119513 -1.16796875 12.84375 C-1.16685593 11.78853149 -1.1657431 10.73331299 -1.16459656 9.64611816 C-1.15821671 8.67170776 -1.15183685 7.69729736 -1.14526367 6.69335938 C-1.14145187 5.83335327 -1.13764008 4.97334717 -1.13371277 4.08728027 C-1 2 -1 2 0 0 Z M2 43 C2 44.98 2 46.96 2 49 C3.84797201 50.84797201 6.86796077 50.12775947 9.33984375 50.12939453 C10.33251755 50.13202301 10.33251755 50.13202301 11.34524536 50.13470459 C13.5426899 50.13912217 15.74005458 50.13618547 17.9375 50.1328125 C19.45825211 50.13348557 20.97900412 50.13445561 22.49975586 50.13571167 C25.69092836 50.13718851 28.88207292 50.13503452 32.07324219 50.13037109 C36.1726453 50.1246738 40.27198296 50.12795288 44.37138367 50.13394356 C47.51282244 50.13754954 50.65424558 50.13641042 53.79568481 50.13381577 C55.30762744 50.1331466 56.81957146 50.13397457 58.33151245 50.13629532 C60.44109887 50.13882245 62.55057787 50.13498044 64.66015625 50.12939453 C65.86293213 50.12859894 67.06570801 50.12780334 68.30493164 50.12698364 C70.91747185 50.30687593 70.91747185 50.30687593 72 49 C72 47.02 72 45.04 72 43 C48.9 43 25.8 43 2 43 Z " fill="#00191E" transform="translate(3,10)"/>
<path d="M0 0 C1.55170898 -0.00945648 1.55170898 -0.00945648 3.13476562 -0.019104 C4.81602539 -0.01303131 4.81602539 -0.01303131 6.53125 -0.00683594 C7.67787109 -0.00874939 8.82449219 -0.01066284 10.00585938 -0.01263428 C12.43359598 -0.01399715 14.86133984 -0.01029361 17.2890625 -0.00195312 C21.01579073 0.00874469 24.74203686 -0.00184525 28.46875 -0.01464844 C30.82291774 -0.01332686 33.17708517 -0.01076451 35.53125 -0.00683594 C36.65208984 -0.0108844 37.77292969 -0.01493286 38.92773438 -0.019104 C39.96220703 -0.01279968 40.99667969 -0.00649536 42.0625 0 C43.43245117 0.00238678 43.43245117 0.00238678 44.83007812 0.00482178 C47.03125 0.25878906 47.03125 0.25878906 49.03125 2.25878906 C49.27175903 4.16970825 49.27175903 4.16970825 49.25830078 6.52490234 C49.25814972 7.40566437 49.25799866 8.28642639 49.25784302 9.19387817 C49.24752045 10.14600189 49.23719788 11.09812561 49.2265625 12.07910156 C49.2237326 13.05289764 49.22090271 14.02669373 49.21798706 15.02999878 C49.20676913 18.14805255 49.1816617 21.26582174 49.15625 24.38378906 C49.14622228 26.49446201 49.13709607 28.60513944 49.12890625 30.71582031 C49.10682458 35.89690741 49.07333129 41.07782791 49.03125 46.25878906 C48.04125 46.25878906 47.05125 46.25878906 46.03125 46.25878906 C46.03125 35.36878906 46.03125 24.47878906 46.03125 13.25878906 C29.53125 13.25878906 13.03125 13.25878906 -3.96875 13.25878906 C-3.96875 24.14878906 -3.96875 35.03878906 -3.96875 46.25878906 C-4.95875 46.25878906 -5.94875 46.25878906 -6.96875 46.25878906 C-7.01934881 40.02916929 -7.05444062 33.79960226 -7.07861328 27.56982422 C-7.08868751 25.44936137 -7.10234733 23.32891246 -7.11962891 21.20849609 C-7.14381489 18.16532963 -7.15521869 15.1223464 -7.1640625 12.07910156 C-7.17438507 11.12697784 -7.18470764 10.17485413 -7.19534302 9.19387817 C-7.19549408 8.31311615 -7.19564514 7.43235413 -7.19580078 6.52490234 C-7.200242 5.74768829 -7.20468323 4.97047424 -7.20925903 4.16970825 C-6.65586852 -0.22715178 -3.68371806 0.00641791 0 0 Z M-3.96875 4.25878906 C-3.96875 6.23878906 -3.96875 8.21878906 -3.96875 10.25878906 C12.53125 10.25878906 29.03125 10.25878906 46.03125 10.25878906 C46.03125 8.27878906 46.03125 6.29878906 46.03125 4.25878906 C44.43073336 2.65827242 42.74278878 3.13147434 40.52734375 3.12939453 C39.56965088 3.12624237 38.61195801 3.12309021 37.62524414 3.11984253 C36.58360107 3.12186676 35.54195801 3.12389099 34.46875 3.12597656 C33.40712646 3.12501984 32.34550293 3.12406311 31.25170898 3.12307739 C29.00211528 3.12239542 26.75251963 3.12425087 24.50292969 3.12841797 C21.04617929 3.13376597 17.58955883 3.12847352 14.1328125 3.12207031 C11.95312471 3.12273109 9.773437 3.12401225 7.59375 3.12597656 C6.55210693 3.12395233 5.51046387 3.1219281 4.43725586 3.11984253 C3.00071655 3.12457077 3.00071655 3.12457077 1.53515625 3.12939453 C0.68767822 3.13019012 -0.1597998 3.13098572 -1.03295898 3.13180542 C-2.9753213 3.04559198 -2.9753213 3.04559198 -3.96875 4.25878906 Z " fill="#00191E" transform="translate(18.96875,1.7412109375)"/>
<path d="M0 0 C1.32 0 2.64 0 4 0 C3.67 1.32 3.34 2.64 3 4 C6.96 4 10.92 4 15 4 C14.67 2.68 14.34 1.36 14 0 C15.32 0 16.64 0 18 0 C18.474375 0.639375 18.94875 1.27875 19.4375 1.9375 C21.44098875 4.58210515 22.82049404 4.49797274 26 5 C27 7 27 7 27 13 C15.12 13 3.24 13 -9 13 C-9 7 -9 7 -7 5 C-6.175 4.690625 -5.35 4.38125 -4.5 4.0625 C-1.69808253 3.1416526 -1.69808253 3.1416526 0 0 Z M-5 8 C-5.33 8.66 -5.66 9.32 -6 10 C3.9 10 13.8 10 24 10 C23.67 9.34 23.34 8.68 23 8 C13.76 8 4.52 8 -5 8 Z " fill="#00191E" transform="translate(31,65)"/>
<path d="M0 0 C0.99 0 1.98 0 3 0 C2.38574623 5.7926463 0.84466956 10.94609066 -1.0625 16.4375 C-1.34416016 17.26443359 -1.62582031 18.09136719 -1.91601562 18.94335938 C-2.60517792 20.96412338 -3.3018231 22.98233282 -4 25 C-4.99 25 -5.98 25 -7 25 C-6.38574623 19.2073537 -4.84466956 14.05390934 -2.9375 8.5625 C-2.65583984 7.73556641 -2.37417969 6.90863281 -2.08398438 6.05664062 C-1.39482208 4.03587662 -0.6981769 2.01766718 0 0 Z " fill="#00191E" transform="translate(42,20)"/>
<path d="M0 0 C5.03985731 0.44469329 7.37634988 2.71343362 11 6 C10.74682781 9.41782456 9.71625376 10.27744077 7.1875 12.75 C4 15 4 15 0 15 C1.37154504 12.04590299 2.98863724 9.55991624 5 7 C4.175 6.21625 3.35 5.4325 2.5 4.625 C0 2 0 2 0 0 Z " fill="#00191F" transform="translate(48,25)"/>
<path d="M0 0 C-1.37154504 2.95409701 -2.98863724 5.44008376 -5 8 C-4.175 8.78375 -3.35 9.5675 -2.5 10.375 C0 13 0 13 0 15 C-5.03985731 14.55530671 -7.37634988 12.28656638 -11 9 C-10.74682781 5.58217544 -9.71625376 4.72255923 -7.1875 2.25 C-4 0 -4 0 0 0 Z " fill="#00191F" transform="translate(32,25)"/>
<path d="M0 0 C5.94 0 11.88 0 18 0 C18 0.99 18 1.98 18 3 C12.06 3 6.12 3 0 3 C0 2.01 0 1.02 0 0 Z " fill="#00191E" transform="translate(45,7)"/>
<path d="M0 0 C2.64 0 5.28 0 8 0 C8 0.99 8 1.98 8 3 C5.36 3 2.72 3 0 3 C0 2.01 0 1.02 0 0 Z " fill="#00191E" transform="translate(36,55)"/>
<path d="M0 0 C0.66 0 1.32 0 2 0 C2 0.99 2 1.98 2 3 C1.01 3 0.02 3 -1 3 C-0.67 2.01 -0.34 1.02 0 0 Z " fill="#00191E" transform="translate(28,7)"/>
<path d="M0 0 C0.66 0 1.32 0 2 0 C2 0.99 2 1.98 2 3 C1.01 3 0.02 3 -1 3 C-0.67 2.01 -0.34 1.02 0 0 Z " fill="#00191E" transform="translate(23,7)"/>
<path d="M0 0 C0.66 0 1.32 0 2 0 C2 0.99 2 1.98 2 3 C1.01 3 0.02 3 -1 3 C-0.67 2.01 -0.34 1.02 0 0 Z " fill="#00191E" transform="translate(18,7)"/>
</svg>
