<?xml version="1.0" encoding="UTF-8"?>
<svg version="1.1" xmlns="http://www.w3.org/2000/svg" width="81" height="81">
<path d="M0 0 C1.01775513 -0.00315216 2.03551025 -0.00630432 3.08410645 -0.009552 C4.19137085 -0.00752777 5.29863525 -0.00550354 6.43945312 -0.00341797 C7.56766479 -0.00437469 8.69587646 -0.00533142 9.85827637 -0.00631714 C12.24910538 -0.00699915 14.63993624 -0.00514344 17.03076172 -0.00097656 C20.70479464 0.00437137 24.37870529 -0.0009209 28.05273438 -0.00732422 C30.3691409 -0.00666344 32.68554734 -0.00538229 35.00195312 -0.00341797 C36.66284973 -0.00645432 36.66284973 -0.00645432 38.3572998 -0.009552 C39.37505493 -0.00639984 40.39281006 -0.00324768 41.44140625 0 C42.79256531 0.00119339 42.79256531 0.00119339 44.17102051 0.00241089 C46.22070312 0.12939453 46.22070312 0.12939453 47.22070312 1.12939453 C47.30739745 2.61811313 47.32773806 4.11083953 47.31835938 5.60205078 C47.31513672 6.50117188 47.31191406 7.40029297 47.30859375 8.32666016 C47.29602539 9.74495117 47.29602539 9.74495117 47.28320312 11.19189453 C47.27869141 12.14128906 47.27417969 13.09068359 47.26953125 14.06884766 C47.25770423 16.42242518 47.24122338 18.7758793 47.22070312 21.12939453 C48.1359375 21.10619141 49.05117188 21.08298828 49.99414062 21.05908203 C51.18265625 21.04103516 52.37117188 21.02298828 53.59570312 21.00439453 C55.37074219 20.96958984 55.37074219 20.96958984 57.18164062 20.93408203 C60.22070312 21.12939453 60.22070312 21.12939453 62.22070312 23.12939453 C62.44775391 25.37597656 62.44775391 25.37597656 62.41601562 28.13720703 C62.40957031 29.12333984 62.403125 30.10947266 62.39648438 31.12548828 C62.37134766 32.67429687 62.37134766 32.67429687 62.34570312 34.25439453 C62.33667969 35.29466797 62.32765625 36.33494141 62.31835938 37.40673828 C62.29474059 39.98118546 62.26180461 42.55517665 62.22070312 45.12939453 C63.00316406 45.11779297 63.785625 45.10619141 64.59179688 45.09423828 C66.10966797 45.08070312 66.10966797 45.08070312 67.65820312 45.06689453 C68.66753906 45.05529297 69.676875 45.04369141 70.71679688 45.03173828 C73.22070312 45.12939453 73.22070312 45.12939453 74.22070312 46.12939453 C74.32073602 48.26292627 74.3515136 50.39976995 74.35351562 52.53564453 C74.35480469 53.83630859 74.35609375 55.13697266 74.35742188 56.47705078 C74.35532715 57.15783691 74.35323242 57.83862305 74.35107422 58.54003906 C74.34572553 60.62067968 74.35101992 62.70110442 74.35742188 64.78173828 C74.35613281 66.08240234 74.35484375 67.38306641 74.35351562 68.72314453 C74.3523877 69.92648438 74.35125977 71.12982422 74.35009766 72.36962891 C74.22070312 75.12939453 74.22070312 75.12939453 73.22070312 76.12939453 C70.08327545 76.4062634 66.93141035 76.36113082 63.78320312 76.37939453 C62.89826172 76.40001953 62.01332031 76.42064453 61.1015625 76.44189453 C59.8321582 76.44962891 59.8321582 76.44962891 58.53710938 76.45751953 C57.75795166 76.46686523 56.97879395 76.47621094 56.17602539 76.48583984 C55.53076904 76.36821289 54.8855127 76.25058594 54.22070312 76.12939453 C51.41907286 71.92694913 52.075806 69.12834518 52.22070312 64.12939453 C49.25070313 64.12939453 46.28070313 64.12939453 43.22070312 64.12939453 C43.22070312 65.11939453 43.22070312 66.10939453 43.22070312 67.12939453 C46.19070312 67.62439453 46.19070312 67.62439453 49.22070312 68.12939453 C49.60133533 70.45548023 49.93340257 72.78994717 50.22070312 75.12939453 C48.48777333 76.86232433 46.25855977 76.25759499 43.94921875 76.26834106 C43.21380859 76.26631683 42.47839844 76.2642926 41.72070312 76.26220703 C40.96982422 76.26316376 40.21894531 76.26412048 39.4453125 76.2651062 C37.85481686 76.26578791 36.26431845 76.26393425 34.67382812 76.25976562 C32.23105658 76.2544172 29.78846891 76.25971087 27.34570312 76.26611328 C25.80403605 76.2654525 24.26236909 76.26417133 22.72070312 76.26220703 C21.98529297 76.26423126 21.24988281 76.26625549 20.4921875 76.26834106 C15.33565473 76.24434614 15.33565473 76.24434614 14.22070312 75.12939453 C14.50800368 72.78994717 14.84007092 70.45548023 15.22070312 68.12939453 C18.19070312 67.63439453 18.19070312 67.63439453 21.22070312 67.12939453 C21.22070312 66.13939453 21.22070312 65.14939453 21.22070312 64.12939453 C20.01671875 64.15259766 18.81273437 64.17580078 17.57226562 64.19970703 C15.99675098 64.21846316 14.42122964 64.23666353 12.84570312 64.25439453 C12.05164063 64.27115234 11.25757812 64.28791016 10.43945312 64.30517578 C8.36578297 64.32274926 6.29187071 64.23274621 4.22070312 64.12939453 C2.22070312 62.12939453 2.22070312 62.12939453 2.02539062 58.21533203 C2.03869936 56.64490103 2.0625671 55.07453232 2.09570312 53.50439453 C2.10472656 52.70259766 2.11375 51.90080078 2.12304688 51.07470703 C2.1466409 49.09280931 2.18251248 47.11106472 2.22070312 45.12939453 C0.51914062 45.16033203 0.51914062 45.16033203 -1.21679688 45.19189453 C-4.77929688 45.12939453 -4.77929688 45.12939453 -5.77929688 44.12939453 C-5.87715029 42.78395126 -5.90727673 41.4334689 -5.90869141 40.08447266 C-5.91184357 39.22688354 -5.91499573 38.36929443 -5.91824341 37.48571777 C-5.91621918 36.5534436 -5.91419495 35.62116943 -5.91210938 34.66064453 C-5.9130661 33.71000122 -5.91402283 32.75935791 -5.91500854 31.77990723 C-5.91569044 29.76570571 -5.91383549 27.75150201 -5.90966797 25.73730469 C-5.90431985 22.64269099 -5.90961265 19.54822243 -5.91601562 16.45361328 C-5.91535485 14.50179004 -5.91407369 12.54996689 -5.91210938 10.59814453 C-5.91413361 9.66587036 -5.91615784 8.73359619 -5.91824341 7.77307129 C-5.91509125 6.91548218 -5.91193909 6.05789307 -5.90869141 5.17431641 C-5.90789581 4.41566284 -5.90710022 3.65700928 -5.90628052 2.87536621 C-5.6386273 -0.80475302 -3.10372205 0.00274131 0 0 Z M-2.77929688 3.12939453 C-2.77929688 5.76939453 -2.77929688 8.40939453 -2.77929688 11.12939453 C4.48070313 11.12939453 11.74070313 11.12939453 19.22070312 11.12939453 C19.22070312 12.11939453 19.22070312 13.10939453 19.22070312 14.12939453 C11.96070312 14.12939453 4.70070312 14.12939453 -2.77929688 14.12939453 C-2.77929688 23.36939453 -2.77929688 32.60939453 -2.77929688 42.12939453 C12.73070313 42.12939453 28.24070313 42.12939453 44.22070312 42.12939453 C44.22070312 32.88939453 44.22070312 23.64939453 44.22070312 14.12939453 C36.96070313 14.12939453 29.70070312 14.12939453 22.22070312 14.12939453 C22.22070312 13.13939453 22.22070312 12.14939453 22.22070312 11.12939453 C29.48070312 11.12939453 36.74070313 11.12939453 44.22070312 11.12939453 C44.22070312 8.48939453 44.22070312 5.84939453 44.22070312 3.12939453 C28.71070312 3.12939453 13.20070312 3.12939453 -2.77929688 3.12939453 Z M47.22070312 25.12939453 C46.89070313 31.39939453 46.56070313 37.66939453 46.22070312 44.12939453 C32.69070312 44.45939453 19.16070312 44.78939453 5.22070312 45.12939453 C5.22070312 48.09939453 5.22070312 51.06939453 5.22070312 54.12939453 C20.73070313 54.12939453 36.24070313 54.12939453 52.22070312 54.12939453 C52.88070312 51.48939453 53.54070313 48.84939453 54.22070312 46.12939453 C55.87070312 45.79939453 57.52070312 45.46939453 59.22070312 45.12939453 C59.22070312 38.52939453 59.22070312 31.92939453 59.22070312 25.12939453 C55.26070312 25.12939453 51.30070312 25.12939453 47.22070312 25.12939453 Z M56.22070312 48.12939453 C56.22070312 56.37939453 56.22070312 64.62939453 56.22070312 73.12939453 C61.17070313 73.12939453 66.12070313 73.12939453 71.22070312 73.12939453 C71.22070312 64.87939453 71.22070312 56.62939453 71.22070312 48.12939453 C66.27070312 48.12939453 61.32070312 48.12939453 56.22070312 48.12939453 Z M5.22070312 58.12939453 C5.22070312 58.78939453 5.22070312 59.44939453 5.22070312 60.12939453 C13.47070312 60.45939453 21.72070312 60.78939453 30.22070312 61.12939453 C30.22070312 61.78939453 30.22070312 62.44939453 30.22070312 63.12939453 C28.24070312 63.78939453 26.26070312 64.44939453 24.22070312 65.12939453 C24.22070312 65.78939453 24.22070312 66.44939453 24.22070312 67.12939453 C29.50070313 67.12939453 34.78070313 67.12939453 40.22070312 67.12939453 C39.72570313 65.64439453 39.72570313 65.64439453 39.22070312 64.12939453 C36.74570312 63.63439453 36.74570312 63.63439453 34.22070312 63.12939453 C34.22070312 62.46939453 34.22070312 61.80939453 34.22070312 61.12939453 C40.16070312 60.79939453 46.10070313 60.46939453 52.22070312 60.12939453 C52.22070312 59.46939453 52.22070312 58.80939453 52.22070312 58.12939453 C36.71070312 58.12939453 21.20070312 58.12939453 5.22070312 58.12939453 Z M17.22070312 71.12939453 C17.22070312 71.78939453 17.22070312 72.44939453 17.22070312 73.12939453 C27.12070312 73.12939453 37.02070312 73.12939453 47.22070312 73.12939453 C46.89070313 72.46939453 46.56070313 71.80939453 46.22070312 71.12939453 C36.65070312 71.12939453 27.08070312 71.12939453 17.22070312 71.12939453 Z " fill="#00191E" transform="translate(5.779296875,1.87060546875)"/>
<path d="M0 0 C3.6815625 -0.0309375 3.6815625 -0.0309375 7.4375 -0.0625 C8.21150146 -0.071604 8.98550293 -0.08070801 9.78295898 -0.09008789 C11.52221717 -0.09724913 13.26145304 -0.05024702 15 0 C16 1 16 1 16.11352539 3.04125977 C16.10828857 3.91580811 16.10305176 4.79035645 16.09765625 5.69140625 C16.09443359 6.63564453 16.09121094 7.57988281 16.08789062 8.55273438 C16.07951172 9.54595703 16.07113281 10.53917969 16.0625 11.5625 C16.05798828 12.55958984 16.05347656 13.55667969 16.04882812 14.58398438 C16.03700023 17.05601487 16.01906415 19.52801472 16 22 C10.72 22 5.44 22 0 22 C0 14.74 0 7.48 0 0 Z M3 3 C3 8.28 3 13.56 3 19 C6.3 19 9.6 19 13 19 C13 13.72 13 8.44 13 3 C9.7 3 6.4 3 3 3 Z " fill="#00191E" transform="translate(6,19)"/>
<path d="M0 0 C0.89460938 -0.00128906 1.78921875 -0.00257812 2.7109375 -0.00390625 C3.65195312 -0.00003906 4.59296875 0.00382812 5.5625 0.0078125 C6.97402344 0.00201172 6.97402344 0.00201172 8.4140625 -0.00390625 C9.75597656 -0.00197266 9.75597656 -0.00197266 11.125 0 C11.95128906 0.00112793 12.77757813 0.00225586 13.62890625 0.00341797 C15.5625 0.1328125 15.5625 0.1328125 16.5625 1.1328125 C16.63429964 2.65209288 16.64642007 4.17448732 16.625 5.6953125 C16.61597656 6.52160156 16.60695313 7.34789062 16.59765625 8.19921875 C16.58605469 8.83730469 16.57445313 9.47539062 16.5625 10.1328125 C13.08335059 10.16169064 9.60423169 10.17956937 6.125 10.1953125 C4.63516602 10.20788086 4.63516602 10.20788086 3.11523438 10.22070312 C2.17099609 10.22392578 1.22675781 10.22714844 0.25390625 10.23046875 C-0.62064209 10.23570557 -1.49519043 10.24094238 -2.39624023 10.24633789 C-4.4375 10.1328125 -4.4375 10.1328125 -5.4375 9.1328125 C-5.5703125 7.3203125 -5.5703125 7.3203125 -5.5625 5.1328125 C-5.56507812 4.4109375 -5.56765625 3.6890625 -5.5703125 2.9453125 C-5.30490413 -0.67673115 -3.10906445 0.00424404 0 0 Z M-2.4375 3.1328125 C-2.4375 4.4528125 -2.4375 5.7728125 -2.4375 7.1328125 C2.8425 7.1328125 8.1225 7.1328125 13.5625 7.1328125 C13.5625 5.8128125 13.5625 4.4928125 13.5625 3.1328125 C8.2825 3.1328125 3.0025 3.1328125 -2.4375 3.1328125 Z " fill="#00191E" transform="translate(30.4375,18.8671875)"/>
<path d="M0 0 C6.6 0 13.2 0 20 0 C20.33 1.32 20.66 2.64 21 4 C14.07 4 7.14 4 0 4 C0 2.68 0 1.36 0 0 Z " fill="#00171E" transform="translate(26,32)"/>
<path d="M0 0 C4.95 0 9.9 0 15 0 C14.67 0.99 14.34 1.98 14 3 C9.38 3 4.76 3 0 3 C0 2.01 0 1.02 0 0 Z " fill="#00191E" transform="translate(6,8)"/>
<path d="M0 0 C3.96 0 7.92 0 12 0 C12 0.99 12 1.98 12 3 C8.04 3 4.08 3 0 3 C0 2.01 0 1.02 0 0 Z " fill="#00181E" transform="translate(35,38)"/>
<path d="M0 0 C1.98 0 3.96 0 6 0 C6 0.99 6 1.98 6 3 C4.02 3 2.04 3 0 3 C0 2.01 0 1.02 0 0 Z " fill="#00181E" transform="translate(25,38)"/>
<path d="M0 0 C1.32 0 2.64 0 4 0 C3.67 0.99 3.34 1.98 3 3 C2.01 2.67 1.02 2.34 0 2 C0 1.34 0 0.68 0 0 Z " fill="#00191D" transform="translate(32,8)"/>
<path d="M0 0 C0.99 0 1.98 0 3 0 C3 0.99 3 1.98 3 3 C2.01 3 1.02 3 0 3 C0 2.01 0 1.02 0 0 Z " fill="#00171E" transform="translate(68,70)"/>
<path d="M0 0 C0.99 0 1.98 0 3 0 C3 0.99 3 1.98 3 3 C2.01 2.67 1.02 2.34 0 2 C0 1.34 0 0.68 0 0 Z " fill="#00191E" transform="translate(44,8)"/>
<path d="M0 0 C0.99 0 1.98 0 3 0 C3 0.99 3 1.98 3 3 C2.01 2.67 1.02 2.34 0 2 C0 1.34 0 0.68 0 0 Z " fill="#00191E" transform="translate(38,8)"/>
</svg>
